# xmcd
#
# Track frame offsets:
#	150
#	14629
#	36982
#	52885
#	68038
#	80266
#	97370
#	109674
#	127227
#	140056
#
# Disc length: 2052 seconds
#
# Revision: 1
# Processed by: cddbd v1.5.2PL0 Copyright (c) Steve Scherf et al.
# Submitted via: audiograbber 1.83.01
#
DISCID=9208020a
DTITLE=Peggy Lee - Bridge Over Troubled Water
DYEAR=1970
DGENRE=Oldies
TTITLE0=You'll Remember Me
TTITLE1=Bridge Over Troubled Water
TTITLE2=The Thrill Is Gone
TTITLE3=Something Strange
TTITLE4=Have You Seen My Baby
TTITLE5=He Used Me
TTITLE6=(There's) Always Something
TTITLE7=I See Your Face Before Me
TTITLE8=Raindrops Keep Fallin' On My
TTITLE9=What Are You Doing The Rest
EXTD=
EXTT0=
EXTT1=
EXTT2=
EXTT3=
EXTT4=
EXTT5=
EXTT6=
EXTT7=
EXTT8=
EXTT9=
PLAYORDER=
